<svg preserveAspectRatio="none" width="100%" height="100%" overflow="visible" style="display: block;" viewBox="0 0 16 16" fill="none" xmlns="http://www.w3.org/2000/svg">
<g id="Icon" clip-path="url(#clip0_147_7)">
<path id="Vector" d="M9.2143 11.0369C9.35188 11.1001 9.50688 11.1145 9.65376 11.0778C9.80064 11.0411 9.93064 10.9555 10.0223 10.8351L10.2588 10.5253C10.3829 10.3598 10.5439 10.2255 10.7289 10.133C10.9139 10.0405 11.1179 9.99237 11.3247 9.99237H13.3232C13.6765 9.99237 14.0154 10.1327 14.2653 10.3826C14.5151 10.6325 14.6555 10.9713 14.6555 11.3247V13.3232C14.6555 13.6765 14.5151 14.0154 14.2653 14.2653C14.0154 14.5151 13.6765 14.6555 13.3232 14.6555C10.143 14.6555 7.09307 13.3922 4.84435 11.1434C2.59563 8.89472 1.33232 5.8448 1.33232 2.66463C1.33232 2.31128 1.47268 1.9724 1.72254 1.72254C1.9724 1.47268 2.31128 1.33232 2.66463 1.33232H4.66311C5.01646 1.33232 5.35534 1.47268 5.6052 1.72254C5.85505 1.9724 5.99542 2.31128 5.99542 2.66463V4.66311C5.99542 4.86994 5.94727 5.07394 5.85477 5.25894C5.76227 5.44394 5.62796 5.60486 5.4625 5.72896L5.15073 5.96278C5.02844 6.05616 4.94224 6.189 4.90678 6.33873C4.87132 6.48846 4.88879 6.64584 4.95622 6.78415C5.86664 8.63332 7.36399 10.1288 9.2143 11.0369Z" stroke="var(--stroke-0, white)" stroke-width="1.33232" stroke-linecap="round" stroke-linejoin="round"/>
</g>
<defs>
<clipPath id="clip0_147_7">
<rect width="15.9878" height="15.9878" fill="white"/>
</clipPath>
</defs>
</svg>
