<svg preserveAspectRatio="none" width="100%" height="100%" overflow="visible" style="display: block;" viewBox="0 0 16 16" fill="none" xmlns="http://www.w3.org/2000/svg">
<g id="Icon" clip-path="url(#clip0_148_137)">
<path id="Vector" d="M7 13.6667L13.6667 7C13.9782 6.69472 14.2261 6.33071 14.396 5.92902C14.566 5.52733 14.6547 5.09593 14.6569 4.65977C14.6591 4.2236 14.5748 3.79133 14.4089 3.38795C14.243 2.98456 13.9988 2.61806 13.6904 2.30965C13.3819 2.00123 13.0154 1.75701 12.6121 1.59112C12.2087 1.42522 11.7764 1.34094 11.3402 1.34314C10.9041 1.34534 10.4727 1.43399 10.071 1.60395C9.66929 1.77391 9.30528 2.02182 9 2.33334L2.33333 9C2.02181 9.30529 1.77391 9.6693 1.60395 10.071C1.43398 10.4727 1.34534 10.9041 1.34314 11.3402C1.34093 11.7764 1.42522 12.2087 1.59111 12.6121C1.75701 13.0154 2.00122 13.3819 2.30964 13.6904C2.61806 13.9988 2.98456 14.243 3.38794 14.4089C3.79133 14.5748 4.2236 14.6591 4.65976 14.6569C5.09592 14.6547 5.52732 14.566 5.92901 14.3961C6.3307 14.2261 6.69471 13.9782 7 13.6667Z" stroke="var(--stroke-0, #5147EA)" stroke-width="1.33333" stroke-linecap="round" stroke-linejoin="round"/>
<path id="Vector_2" d="M5.66667 5.66667L10.3333 10.3333" stroke="var(--stroke-0, #5147EA)" stroke-width="1.33333" stroke-linecap="round" stroke-linejoin="round"/>
</g>
<defs>
<clipPath id="clip0_148_137">
<rect width="16" height="16" fill="white"/>
</clipPath>
</defs>
</svg>
