<svg preserveAspectRatio="none" width="100%" height="100%" overflow="visible" style="display: block;" viewBox="0 0 14 14" fill="none" xmlns="http://www.w3.org/2000/svg">
<g id="Icon">
<path id="Vector" d="M10.8681 5.43403C10.8681 8.14724 7.85815 10.9729 6.84742 11.8456C6.75326 11.9164 6.63864 11.9547 6.52083 11.9547C6.40302 11.9547 6.28841 11.9164 6.19425 11.8456C5.18352 10.9729 2.17361 8.14724 2.17361 5.43403C2.17361 4.28107 2.63162 3.17534 3.44688 2.36008C4.26215 1.54482 5.36788 1.08681 6.52083 1.08681C7.67379 1.08681 8.77952 1.54482 9.59478 2.36008C10.41 3.17534 10.8681 4.28107 10.8681 5.43403Z" stroke="var(--stroke-0, #008236)" stroke-width="1.08681" stroke-linecap="round" stroke-linejoin="round"/>
<path id="Vector_2" d="M6.52083 7.06424C7.42117 7.06424 8.15104 6.33437 8.15104 5.43403C8.15104 4.53369 7.42117 3.80382 6.52083 3.80382C5.62049 3.80382 4.89062 4.53369 4.89062 5.43403C4.89062 6.33437 5.62049 7.06424 6.52083 7.06424Z" stroke="var(--stroke-0, #008236)" stroke-width="1.08681" stroke-linecap="round" stroke-linejoin="round"/>
</g>
</svg>
