<svg preserveAspectRatio="none" width="100%" height="100%" overflow="visible" style="display: block;" viewBox="0 0 16 16" fill="none" xmlns="http://www.w3.org/2000/svg">
<g id="Icon">
<path id="Vector" d="M7.33333 1.33333V2.66667" stroke="var(--stroke-0, #6A7282)" stroke-width="1.33333" stroke-linecap="round" stroke-linejoin="round"/>
<path id="Vector_2" d="M3.33333 1.33333V2.66667" stroke="var(--stroke-0, #6A7282)" stroke-width="1.33333" stroke-linecap="round" stroke-linejoin="round"/>
<path id="Vector_3" d="M3.33333 2H2.66667C2.31304 2 1.97391 2.14048 1.72386 2.39052C1.47381 2.64057 1.33333 2.97971 1.33333 3.33333V6C1.33333 7.06087 1.75476 8.07828 2.50491 8.82843C3.25505 9.57857 4.27247 10 5.33333 10C6.3942 10 7.41162 9.57857 8.16176 8.82843C8.91191 8.07828 9.33333 7.06087 9.33333 6V3.33333C9.33333 2.97971 9.19286 2.64057 8.94281 2.39052C8.69276 2.14048 8.35362 2 8 2H7.33333" stroke="var(--stroke-0, #6A7282)" stroke-width="1.33333" stroke-linecap="round" stroke-linejoin="round"/>
<path id="Vector_4" d="M5.33333 10C5.33333 11.0609 5.75476 12.0783 6.50491 12.8284C7.25505 13.5786 8.27247 14 9.33333 14C10.3942 14 11.4116 13.5786 12.1618 12.8284C12.9119 12.0783 13.3333 11.0609 13.3333 10V8" stroke="var(--stroke-0, #6A7282)" stroke-width="1.33333" stroke-linecap="round" stroke-linejoin="round"/>
<path id="Vector_5" d="M13.3333 8C14.0697 8 14.6667 7.40305 14.6667 6.66667C14.6667 5.93029 14.0697 5.33333 13.3333 5.33333C12.597 5.33333 12 5.93029 12 6.66667C12 7.40305 12.597 8 13.3333 8Z" stroke="var(--stroke-0, #6A7282)" stroke-width="1.33333" stroke-linecap="round" stroke-linejoin="round"/>
</g>
</svg>
